<?xml version="1.0" encoding="utf-8"?>
<!-- Generator: Adobe Illustrator 15.1.0, SVG Export Plug-In . SVG Version: 6.00 Build 0)  -->
<!DOCTYPE svg PUBLIC "-//W3C//DTD SVG 1.0//EN" "http://www.w3.org/TR/2001/REC-SVG-20010904/DTD/svg10.dtd">
<svg version="1.0" id="Layer_1" xmlns="http://www.w3.org/2000/svg" xmlns:xlink="http://www.w3.org/1999/xlink" x="0px" y="0px"
	 width="216px" height="26.949px" viewBox="0 0 216 26.949" enable-background="new 0 0 216 26.949" xml:space="preserve">
<polygon fill="#BD1A8D" points="0,0 0,26.949 115.928,26.949 115.928,26.837 102.537,13.446 115.928,0.055 115.928,0 "/>
<g>
	<path fill="#FFFFFF" d="M91.497,21.379c-0.04,0.103-0.093,0.173-0.118,0.204c-0.024,0.03-0.022,0.053-0.077,0.048
		c-0.053-0.005-0.148-0.071-0.225-0.172c-0.079-0.102-0.145-0.232-0.191-0.374c-0.047-0.14-0.077-0.3-0.088-0.446
		c-0.013-0.166-0.005-0.323,0.012-0.489c0.041-0.377,0.143-0.757,0.279-1.134c0.119,0.25,0.224,0.502,0.307,0.75
		c0.098,0.296,0.173,0.587,0.194,0.859C91.613,20.892,91.58,21.175,91.497,21.379 M85.761,5.801
		c0.022-0.122,0.062-0.233,0.104-0.313c0.043-0.082,0.076-0.116,0.081-0.133c0.001-0.002,0.003-0.005,0.004-0.007
		c0.003-0.001-0.039-0.004-0.003-0.004l0.03-0.001c-0.027-0.004-0.009-0.009-0.002-0.011c0.017-0.001,0.047,0.003,0.084,0.025
		c0.073,0.042,0.162,0.137,0.227,0.255c0.069,0.118,0.119,0.258,0.155,0.405c0.018,0.074,0.028,0.151,0.037,0.227
		c0.004,0.038,0.007,0.076,0.009,0.115l0.001,0.028c0,0.011,0,0.009,0,0.025l0,0.07c-0.001,0.145-0.018,0.318-0.044,0.479
		c-0.046,0.279-0.124,0.558-0.219,0.837c-0.123-0.263-0.231-0.524-0.318-0.779c-0.047-0.145-0.088-0.288-0.118-0.426L85.771,6.49
		c-0.004-0.018-0.007-0.034-0.01-0.051l-0.004-0.026c-0.001-0.019-0.002-0.001-0.004-0.017l-0.005-0.068l-0.006-0.041
		c-0.003-0.03-0.005-0.065-0.006-0.097C85.731,6.057,85.739,5.923,85.761,5.801 M80.822,21.151
		c-0.023,0.128-0.064,0.248-0.113,0.337c-0.049,0.092-0.099,0.142-0.124,0.161c-0.009,0.004,0.013,0.001,0.006,0.007l-0.034,0.004
		c-0.02,0.002,0.027,0.001,0.004,0.002c-0.007,0.004-0.017,0.006-0.028,0.006c-0.022,0.002-0.057-0.004-0.096-0.027
		c-0.079-0.043-0.17-0.141-0.239-0.263c-0.143-0.243-0.212-0.563-0.212-0.88c0-0.325,0.058-0.659,0.149-0.992
		c0.045-0.165,0.098-0.329,0.156-0.492c0.071,0.145,0.138,0.289,0.201,0.435c0.129,0.295,0.231,0.592,0.297,0.877l0.022,0.104
		l0.009,0.047l0.008,0.069c0.01,0.055,0.015,0.134,0.019,0.199C80.854,20.884,80.845,21.022,80.822,21.151 M74.946,5.906
		c0.016-0.128,0.048-0.25,0.091-0.346c0.041-0.098,0.091-0.165,0.111-0.188c0.013-0.011,0.006-0.021,0.025-0.028
		c-0.004-0.008,0.019-0.015,0.043-0.009c0.054,0.012,0.146,0.079,0.219,0.183c0.153,0.207,0.246,0.516,0.266,0.823
		c0.021,0.312-0.024,0.643-0.104,0.976c-0.044,0.172-0.099,0.345-0.158,0.517C75.4,7.75,75.362,7.671,75.326,7.59
		C75.194,7.294,75.083,7,75.012,6.717c-0.036-0.144-0.062-0.277-0.071-0.418C74.928,6.173,74.93,6.032,74.946,5.906 M69.934,21.224
		c-0.024,0.117-0.066,0.217-0.102,0.28c-0.017,0.03-0.032,0.054-0.038,0.068c-0.002,0.008-0.007,0.013-0.005,0.02
		c0.005,0.001,0.009,0.001,0.014,0.004c0.013,0-0.013,0.003-0.021,0.004c-0.03,0.002,0,0.003-0.001,0.004l-0.003,0.004
		c-0.011,0.023-0.081,0.023-0.167-0.046c-0.083-0.063-0.167-0.178-0.23-0.305c-0.064-0.128-0.112-0.277-0.139-0.428
		c-0.006-0.039-0.014-0.077-0.019-0.115c-0.004-0.043-0.007-0.069-0.011-0.116c-0.007-0.083-0.007-0.161-0.003-0.244
		c0.005-0.162,0.025-0.33,0.056-0.496c0.045-0.25,0.115-0.499,0.201-0.746c0.145,0.312,0.268,0.622,0.361,0.922
		c0.022,0.072,0.041,0.142,0.058,0.213c0.018,0.066,0.034,0.144,0.044,0.199c0.003,0.013,0.007,0.025,0.009,0.053l0.005,0.034
		c0.001,0.006,0.003,0.038,0.004,0.021c0.005,0.033,0.009,0.065,0.013,0.098c0.007,0.066,0.011,0.132,0.011,0.197
		C69.971,20.98,69.959,21.108,69.934,21.224 M64.234,5.658c0.029-0.11,0.077-0.2,0.108-0.249c0.016-0.024,0.025-0.039,0.028-0.051
		c0.001-0.003,0.002-0.006,0.005-0.008c0-0.002,0.001-0.002,0.002-0.004c0.023,0-0.034-0.005-0.011-0.005L64.4,5.339
		c0.011,0-0.004-0.001-0.005-0.002c-0.012-0.005,0-0.004,0-0.008c0.029-0.015,0.118,0.013,0.2,0.099
		c0.083,0.081,0.16,0.2,0.216,0.336c0.116,0.274,0.158,0.594,0.132,0.918c-0.021,0.328-0.099,0.666-0.206,0.996
		c-0.016,0.05-0.035,0.101-0.053,0.152c-0.089-0.189-0.172-0.379-0.243-0.565c-0.112-0.292-0.199-0.577-0.239-0.846
		C64.157,6.158,64.171,5.88,64.234,5.658 M98.048,6.063c-0.017-0.205-0.052-0.412-0.114-0.619c-0.063-0.206-0.153-0.415-0.308-0.614
		c-0.08-0.101-0.176-0.198-0.306-0.276c-0.064-0.039-0.135-0.072-0.214-0.096c-0.019-0.007-0.04-0.01-0.06-0.015
		c-0.019-0.004-0.04-0.01-0.067-0.011c-0.021-0.004-0.061-0.008-0.066-0.008l-0.034-0.001c-0.001-0.001-0.004-0.001-0.006-0.001
		c-0.214-0.008-0.394,0.159-0.402,0.375c-0.008,0.213,0.159,0.394,0.373,0.4l0.035,0.001c0.017,0,0.001,0.001,0.002,0.001
		c-0.004-0.001-0.002-0.001,0.001,0c0.002,0.001,0.004,0,0.007,0.001c0.01,0.002,0.022,0.009,0.036,0.017
		c0.029,0.015,0.065,0.048,0.101,0.092c0.073,0.088,0.138,0.219,0.183,0.361c0.091,0.287,0.12,0.629,0.098,0.946
		c-0.054,0.653-0.309,1.322-0.611,1.963c-0.306,0.641-0.671,1.267-1.056,1.88c-0.386,0.614-0.794,1.219-1.208,1.822
		c-0.828,1.207-1.683,2.402-2.47,3.658c-0.086,0.139-0.171,0.278-0.256,0.417c-0.048-0.087-0.094-0.174-0.143-0.26
		c-0.373-0.663-0.776-1.295-1.186-1.915c-0.415-0.616-0.829-1.225-1.245-1.825c-0.417-0.599-0.826-1.199-1.229-1.79
		c-0.398-0.592-0.791-1.182-1.146-1.773c-0.027-0.045-0.053-0.089-0.079-0.133c0.068-0.143,0.134-0.287,0.195-0.436
		c0.146-0.354,0.273-0.723,0.356-1.116c0.041-0.199,0.07-0.393,0.081-0.614l0.002-0.069l0.002-0.082c0-0.054,0-0.107-0.003-0.159
		c-0.003-0.108-0.014-0.214-0.03-0.321c-0.029-0.213-0.084-0.426-0.171-0.642c-0.091-0.212-0.21-0.431-0.419-0.625
		C86.588,4.5,86.458,4.41,86.302,4.35c-0.082-0.031-0.154-0.052-0.273-0.067l-0.037-0.005c0.013-0.002-0.052-0.005-0.072-0.003
		c-0.045-0.001-0.089,0-0.134,0.005c-0.176,0.019-0.345,0.078-0.482,0.155c-0.141,0.079-0.257,0.174-0.354,0.273
		c-0.195,0.201-0.329,0.42-0.431,0.641c-0.103,0.224-0.174,0.451-0.217,0.684c-0.012,0.059-0.021,0.113-0.029,0.175l-0.021,0.167
		l-0.007,0.095c-0.001,0.029-0.002,0.057-0.004,0.086c-0.003,0.058-0.003,0.114-0.003,0.171c0.002,0.227,0.023,0.447,0.056,0.66
		c0.068,0.427,0.184,0.827,0.323,1.205c0.139,0.379,0.296,0.741,0.464,1.093c0.042,0.086,0.086,0.169,0.129,0.253
		c-0.348,0.61-0.73,1.203-1.118,1.793c-0.81,1.217-1.668,2.408-2.493,3.631c-0.224,0.334-0.444,0.672-0.659,1.015
		c-0.303-0.547-0.626-1.075-0.965-1.586c-0.407-0.627-0.832-1.234-1.25-1.836c-0.838-1.204-1.665-2.395-2.414-3.581
		c-0.147-0.235-0.291-0.47-0.427-0.706c0.011-0.024,0.023-0.048,0.034-0.072c0.158-0.347,0.301-0.704,0.412-1.08
		c0.113-0.375,0.194-0.772,0.197-1.197c0-0.423-0.066-0.855-0.285-1.284c-0.116-0.209-0.27-0.431-0.541-0.596
		c-0.135-0.081-0.293-0.144-0.48-0.16c-0.077-0.01-0.174-0.006-0.26,0.006c-0.088,0.01-0.172,0.034-0.252,0.063
		c-0.318,0.125-0.532,0.335-0.692,0.542c-0.158,0.21-0.268,0.432-0.351,0.658c-0.083,0.227-0.136,0.45-0.165,0.691
		c-0.029,0.225-0.032,0.458-0.021,0.679c0.025,0.446,0.114,0.861,0.23,1.254c0.115,0.396,0.263,0.768,0.422,1.128
		c0.089,0.199,0.183,0.393,0.279,0.584c-0.25,0.41-0.516,0.812-0.786,1.213c-0.82,1.202-1.68,2.389-2.488,3.625
		c-0.335,0.509-0.661,1.027-0.975,1.555c-0.557-0.969-1.183-1.864-1.8-2.749c-0.849-1.206-1.693-2.394-2.457-3.59
		c-0.284-0.442-0.561-0.884-0.812-1.329c0.107-0.23,0.206-0.465,0.292-0.708c0.131-0.362,0.24-0.74,0.294-1.143
		c0.052-0.404,0.046-0.831-0.067-1.256c-0.059-0.213-0.142-0.428-0.281-0.639c-0.139-0.203-0.348-0.425-0.678-0.535
		c-0.044-0.012-0.076-0.023-0.134-0.032l-0.107-0.017c-0.001-0.002-0.081-0.002-0.08-0.002c-0.022,0-0.044-0.001-0.066,0.001
		c-0.044,0.001-0.088,0.006-0.132,0.013c-0.175,0.027-0.333,0.097-0.467,0.179c-0.266,0.167-0.441,0.382-0.579,0.596
		c-0.271,0.434-0.392,0.899-0.429,1.37c-0.031,0.467,0.025,0.907,0.119,1.318c0.095,0.412,0.229,0.798,0.378,1.168
		c0.144,0.352,0.303,0.69,0.471,1.018c-0.122,0.198-0.246,0.395-0.374,0.588c-0.804,1.211-1.682,2.382-2.517,3.594
		c-0.417,0.606-0.83,1.219-1.226,1.847c-0.396,0.63-0.774,1.272-1.104,1.954c-0.164,0.34-0.315,0.69-0.442,1.056
		c-0.125,0.366-0.228,0.747-0.273,1.15c-0.045,0.4-0.03,0.833,0.105,1.247c0.069,0.208,0.165,0.414,0.324,0.606
		c0.08,0.097,0.178,0.189,0.306,0.263c0.125,0.075,0.285,0.124,0.447,0.124c0.186-0.002,0.345-0.143,0.362-0.333
		c0.019-0.2-0.128-0.378-0.329-0.397l-0.034-0.002c-0.021-0.002-0.043-0.005-0.076-0.026c-0.031-0.02-0.07-0.054-0.106-0.099
		c-0.074-0.091-0.138-0.221-0.183-0.362c-0.088-0.287-0.101-0.604-0.059-0.931c0.083-0.655,0.346-1.318,0.656-1.956
		c0.313-0.638,0.684-1.258,1.072-1.87c0.39-0.611,0.802-1.213,1.219-1.813c0.834-1.201,1.674-2.41,2.447-3.677
		c0.054-0.089,0.109-0.181,0.163-0.27c0.069,0.12,0.139,0.241,0.209,0.361c0.793,1.293,1.666,2.487,2.492,3.69
		c0.414,0.601,0.825,1.195,1.212,1.795c0.393,0.595,0.769,1.192,1.109,1.787c0.013,0.026,0.027,0.051,0.041,0.074
		c-0.041,0.092-0.083,0.182-0.122,0.276c-0.146,0.35-0.278,0.714-0.371,1.098c-0.091,0.384-0.146,0.786-0.11,1.215
		c0.018,0.211,0.055,0.425,0.123,0.638c0.07,0.213,0.165,0.429,0.329,0.636c0.084,0.1,0.184,0.203,0.314,0.288
		c0.128,0.083,0.29,0.15,0.464,0.175l0.066,0.007c0.021,0.002,0.073,0.001,0.067,0.002c0.016,0,0.012,0.004,0.047,0.001
		c0.027-0.001,0.055-0.002,0.082-0.006c0.092-0.01,0.178-0.028,0.259-0.055c0.164-0.054,0.302-0.138,0.421-0.228
		c0.234-0.186,0.394-0.403,0.517-0.621c0.122-0.221,0.21-0.447,0.268-0.679c0.03-0.116,0.054-0.233,0.07-0.35
		c0.008-0.06,0.015-0.119,0.021-0.178c0.001-0.038,0.003-0.031,0.004-0.049l0.003-0.034c0.002-0.02,0.004-0.053,0.004-0.084
		c0.004-0.129,0.004-0.234-0.001-0.35c-0.005-0.112-0.016-0.222-0.028-0.33c-0.054-0.436-0.162-0.843-0.297-1.226
		c-0.135-0.385-0.285-0.754-0.456-1.106c-0.066-0.138-0.135-0.272-0.205-0.408c0.003-0.005,0.006-0.01,0.009-0.015
		c0.382-0.614,0.796-1.212,1.216-1.809c0.842-1.192,1.708-2.378,2.506-3.624c0.188-0.291,0.371-0.584,0.549-0.88
		c0.321,0.563,0.665,1.103,1.02,1.627c0.414,0.621,0.843,1.221,1.264,1.821c0.844,1.198,1.679,2.381,2.426,3.568
		c0.124,0.199,0.245,0.397,0.359,0.599c-0.159,0.338-0.303,0.686-0.417,1.051c-0.116,0.372-0.203,0.76-0.218,1.172l-0.003,0.151
		c0.001,0.052,0.002,0.111,0.005,0.161c0.006,0.106,0.018,0.21,0.034,0.316c0.031,0.212,0.09,0.419,0.179,0.628
		c0.093,0.208,0.218,0.418,0.427,0.603c0.105,0.089,0.234,0.171,0.388,0.224c0.077,0.024,0.159,0.042,0.243,0.05
		c0.001,0.001,0.071,0.002,0.074,0.002l0.035,0.003c0.038-0.002,0.108-0.007,0.143-0.015c0.167-0.023,0.318-0.086,0.447-0.164
		c0.128-0.079,0.235-0.172,0.328-0.27c0.182-0.195,0.306-0.41,0.403-0.626c0.097-0.219,0.163-0.441,0.206-0.668
		c0.021-0.117,0.034-0.222,0.043-0.35l0.006-0.069l0.004-0.091c0.001-0.062,0.001-0.114,0.001-0.169
		c-0.001-0.445-0.078-0.866-0.18-1.263c-0.105-0.4-0.242-0.776-0.397-1.139c-0.115-0.272-0.24-0.534-0.37-0.793
		c0.258-0.447,0.532-0.885,0.816-1.317c0.796-1.223,1.663-2.406,2.503-3.616c0.334-0.478,0.661-0.963,0.978-1.455
		c0.577,1.033,1.234,1.984,1.891,2.918l1.27,1.787c0.422,0.589,0.833,1.177,1.228,1.766c0.252,0.381,0.497,0.767,0.72,1.151
		c-0.104,0.223-0.203,0.449-0.292,0.684c-0.134,0.359-0.253,0.732-0.318,1.13c-0.032,0.198-0.049,0.407-0.049,0.61
		c0.002,0.22,0.023,0.424,0.069,0.639c0.047,0.213,0.117,0.427,0.232,0.638c0.117,0.207,0.277,0.427,0.554,0.585
		c0.137,0.077,0.305,0.13,0.48,0.138c0.081-0.001,0.037,0.005,0.117,0.001c0.026-0.002,0.055-0.004,0.079-0.007l0.064-0.011
		c0.085-0.015,0.169-0.04,0.244-0.071c0.308-0.131,0.511-0.341,0.665-0.548c0.154-0.211,0.261-0.432,0.34-0.656
		c0.077-0.225,0.13-0.455,0.153-0.686c0.048-0.463,0.004-0.905-0.083-1.316c-0.086-0.412-0.215-0.799-0.356-1.171
		c-0.153-0.4-0.327-0.783-0.51-1.155c0.147-0.25,0.301-0.497,0.458-0.742c0.792-1.219,1.655-2.402,2.497-3.61
		c0.421-0.604,0.836-1.214,1.234-1.839c0.397-0.627,0.778-1.269,1.106-1.95c0.164-0.341,0.314-0.692,0.438-1.06
		c0.122-0.369,0.219-0.751,0.254-1.159c0.005-0.05,0.008-0.102,0.011-0.156c0.003-0.059,0.003-0.086,0.003-0.151
		C98.062,6.268,98.058,6.167,98.048,6.063"/>
	<path d="M117.496,11.785v3.238c0,0.706,0.11,1.091,0.312,1.256c0.156,0.128,0.733,0.275,0.898,0.293v0.203h-2.706v-0.203
		c0.156-0.018,0.688-0.137,0.844-0.247c0.213-0.155,0.294-0.55,0.294-1.256v-3.211c0-0.275-0.091-0.552-0.284-0.725
		c-0.211-0.184-0.633-0.368-0.927-0.414v-0.21h2.065l3.586,4.56v-2.827c0-0.678-0.108-1.1-0.312-1.247
		c-0.165-0.12-0.714-0.266-0.899-0.284v-0.202h2.697v0.202c-0.156,0.018-0.661,0.109-0.843,0.239
		c-0.223,0.156-0.296,0.596-0.296,1.239v4.634h-0.466L117.496,11.785z"/>
	<path d="M123.963,16.622c0.125-0.006,0.41-0.041,0.501-0.075c0.166-0.063,0.215-0.183,0.215-0.335v-3.569
		c0-0.152-0.049-0.264-0.215-0.334c-0.126-0.049-0.369-0.118-0.501-0.132v-0.153h2.358v0.153c-0.126,0.014-0.384,0.055-0.508,0.098
		c-0.167,0.056-0.208,0.181-0.208,0.333v3.569c0,0.153,0.056,0.265,0.208,0.334c0.084,0.035,0.382,0.097,0.508,0.11v0.154h-2.358
		V16.622z"/>
	<path d="M127.456,14.458c0-1.468,1.044-2.539,2.462-2.539c0.451,0,0.876,0.167,1.127,0.349l0.194-0.313h0.265l0.028,1.745h-0.175
		c-0.284-0.917-0.778-1.564-1.552-1.564c-0.729,0-1.314,0.793-1.314,2.24c0,1.342,0.661,2.129,1.524,2.129
		c0.785,0,1.204-0.417,1.517-1.05l0.188,0.097c-0.3,0.689-0.891,1.329-1.928,1.329C128.442,16.88,127.456,15.955,127.456,14.458"/>
	<path d="M136.562,14.391c0-1.114-0.354-2.263-1.406-2.263c-0.896,0-1.411,0.869-1.411,2.289c0,1.225,0.424,2.255,1.411,2.255
		C136.139,16.672,136.562,15.662,136.562,14.391 M133.432,16.233c-0.452-0.424-0.737-1.024-0.737-1.781
		c0-0.793,0.265-1.419,0.729-1.865c0.468-0.444,1.065-0.681,1.732-0.681c0.655,0,1.26,0.214,1.748,0.681
		c0.437,0.417,0.707,1.043,0.707,1.78c0,0.745-0.242,1.406-0.75,1.879c-0.445,0.412-1.009,0.646-1.732,0.646
		C134.481,16.893,133.884,16.659,133.432,16.233"/>
	<path d="M138.594,16.622c0.125-0.013,0.426-0.049,0.515-0.082c0.168-0.071,0.217-0.195,0.217-0.348v-3.536
		c0-0.153-0.043-0.271-0.217-0.347c-0.125-0.056-0.39-0.118-0.515-0.132v-0.153h2.372v0.153c-0.126,0.014-0.376,0.055-0.5,0.098
		c-0.175,0.056-0.216,0.194-0.216,0.348v3.332c0,0.57,0.097,0.618,0.785,0.618c0.376,0,0.808-0.02,0.954-0.173
		c0.209-0.216,0.528-0.757,0.626-1.043h0.166l-0.097,1.419h-4.091V16.622z"/>
	<path d="M143.61,16.622c0.124-0.013,0.445-0.049,0.542-0.089c0.167-0.064,0.217-0.181,0.217-0.341v-3.542
		c0-0.152-0.042-0.27-0.217-0.34c-0.132-0.056-0.418-0.118-0.542-0.132v-0.153h3.951v1.154h-0.187
		c-0.085-0.312-0.453-0.875-0.781-0.925c-0.166-0.021-0.354-0.028-0.57-0.028h-0.729v1.983h0.521c0.384,0,0.509-0.117,0.598-0.209
		c0.118-0.119,0.217-0.465,0.237-0.646h0.187v1.955h-0.187c-0.021-0.21-0.138-0.578-0.237-0.683
		c-0.097-0.104-0.229-0.208-0.598-0.208h-0.521v1.538c0,0.542,0.118,0.612,0.785,0.612c0.438,0,0.912,0.006,1.079-0.16
		c0.243-0.243,0.516-0.799,0.599-1.022h0.174l-0.091,1.392h-4.229V16.622z"/>
	<path d="M152.384,11.354c-0.063-0.194-0.146-0.34-0.348-0.469c-0.164-0.09-0.412-0.165-0.589-0.173v-0.203h2.965v0.203
		c-0.321,0.026-0.826,0.119-0.826,0.34c0,0.054,0.019,0.174,0.037,0.238c0.093,0.32,0.743,2.376,1.249,3.917l1.2-3.284
		c-0.056-0.376-0.175-0.816-0.514-1.027c-0.155-0.1-0.469-0.175-0.642-0.183v-0.203h3.045v0.203
		c-0.321,0.026-0.871,0.119-0.871,0.34c0,0.064,0.019,0.165,0.037,0.238c0.091,0.293,0.78,2.359,1.294,3.89
		c0.402-1.083,0.907-2.561,1.081-3.121c0.138-0.449,0.193-0.697,0.193-0.851c0-0.323-0.596-0.46-1.019-0.496v-0.203h2.468v0.203
		c-0.165,0.017-0.404,0.091-0.587,0.192c-0.238,0.128-0.395,0.43-0.523,0.78c-0.311,0.834-1.357,3.771-1.862,5.164h-0.494
		c-0.44-1.421-1.13-3.613-1.424-4.486l-1.64,4.486h-0.506C153.56,15.069,152.576,11.986,152.384,11.354"/>
	<path d="M164.885,14.391c0-1.114-0.354-2.263-1.403-2.263c-0.898,0-1.413,0.869-1.413,2.289c0,1.225,0.423,2.255,1.413,2.255
		C164.461,16.672,164.885,15.662,164.885,14.391 M161.754,16.233c-0.452-0.424-0.737-1.024-0.737-1.781
		c0-0.793,0.265-1.419,0.73-1.865c0.467-0.444,1.064-0.681,1.734-0.681c0.652,0,1.258,0.214,1.745,0.681
		c0.438,0.417,0.708,1.043,0.708,1.78c0,0.745-0.243,1.406-0.751,1.879c-0.444,0.412-1.009,0.646-1.73,0.646
		C162.805,16.893,162.207,16.659,161.754,16.233"/>
	<path d="M168.719,14.278c0.611,0,1.133-0.244,1.133-1.044c0-0.758-0.423-1.009-0.98-1.009h-0.438v2.053H168.719z M169.776,15.69
		c-0.076-0.646-0.216-1.203-0.938-1.203h-0.405v1.697c0,0.154,0.05,0.278,0.21,0.341c0.089,0.034,0.376,0.083,0.501,0.097v0.153
		h-2.365v-0.153c0.124-0.007,0.424-0.049,0.514-0.083c0.169-0.063,0.216-0.188,0.216-0.349v-3.554c0-0.152-0.041-0.286-0.216-0.349
		c-0.124-0.048-0.39-0.096-0.514-0.111v-0.153h2.483c0.877,0,1.627,0.32,1.627,1.078c0,0.759-0.716,1.08-1.279,1.232v0.057
		c0.341,0.041,0.889,0.214,1.03,0.722c0.104,0.383,0.139,0.683,0.221,1.015c0.071,0.271,0.217,0.327,0.335,0.327
		c0.175,0,0.327-0.201,0.327-0.633v-0.146h0.194l-0.007,0.152c-0.007,0.613-0.257,1.022-0.953,1.022
		C170.173,16.851,169.882,16.518,169.776,15.69"/>
	<path d="M173.185,16.622c0.126-0.006,0.475-0.055,0.563-0.089c0.168-0.064,0.217-0.195,0.217-0.349v-3.958h-0.244
		c-0.16,0-0.375,0.007-0.536,0.028c-0.3,0.043-0.674,0.71-0.757,1.016h-0.175v-1.245h4.348v1.245h-0.174
		c-0.083-0.306-0.459-0.973-0.759-1.016c-0.16-0.021-0.354-0.028-0.534-0.028h-0.243v3.924c0,0.153,0.055,0.278,0.215,0.347
		c0.084,0.036,0.438,0.112,0.562,0.125v0.154h-2.483V16.622z"/>
	<path d="M177.556,16.622c0.123-0.013,0.396-0.041,0.485-0.075c0.168-0.063,0.217-0.188,0.217-0.342v-3.555
		c0-0.152-0.049-0.27-0.217-0.34c-0.117-0.049-0.362-0.118-0.485-0.132v-0.153h2.337v0.153c-0.126,0.014-0.376,0.055-0.5,0.098
		c-0.169,0.056-0.21,0.188-0.21,0.342v1.564h2.149v-1.531c0-0.152-0.057-0.27-0.216-0.34c-0.118-0.049-0.368-0.118-0.493-0.132
		v-0.153h2.331v0.153c-0.126,0.014-0.362,0.055-0.482,0.098c-0.172,0.056-0.215,0.188-0.215,0.342v3.554
		c0,0.152,0.057,0.264,0.215,0.341c0.085,0.042,0.356,0.097,0.482,0.11v0.154h-2.331v-0.154c0.125-0.006,0.402-0.041,0.493-0.075
		c0.166-0.063,0.216-0.188,0.216-0.342v-1.773h-2.149v1.739c0,0.152,0.055,0.271,0.21,0.341c0.081,0.035,0.374,0.097,0.5,0.11v0.154
		h-2.337V16.622z"/>
	<path d="M183.983,16.622c0.125-0.006,0.41-0.041,0.501-0.075c0.166-0.063,0.216-0.183,0.216-0.335v-3.569
		c0-0.152-0.05-0.264-0.216-0.334c-0.125-0.049-0.368-0.118-0.501-0.132v-0.153h2.358v0.153c-0.125,0.014-0.383,0.055-0.509,0.098
		c-0.166,0.056-0.207,0.181-0.207,0.333v3.569c0,0.153,0.056,0.265,0.207,0.334c0.085,0.035,0.384,0.097,0.509,0.11v0.154h-2.358
		V16.622z"/>
	<path d="M188.596,12.992v2.455c0,0.536,0.085,0.828,0.236,0.953c0.118,0.097,0.556,0.208,0.682,0.222v0.154h-2.052v-0.154
		c0.117-0.014,0.521-0.104,0.64-0.187c0.16-0.119,0.223-0.418,0.223-0.953v-2.434c0-0.21-0.069-0.418-0.216-0.551
		c-0.16-0.139-0.479-0.279-0.702-0.313v-0.16h1.565l2.721,3.458v-2.143c0-0.515-0.084-0.835-0.238-0.946
		c-0.125-0.09-0.542-0.201-0.68-0.215v-0.153h2.045v0.153c-0.12,0.014-0.502,0.083-0.641,0.181
		c-0.168,0.118-0.223,0.451-0.223,0.938v3.514h-0.354L188.596,12.992z"/>
	<path d="M193.514,14.487c0-1.531,1.072-2.567,2.582-2.567c0.465,0,0.926,0.167,1.183,0.349l0.216-0.313h0.256l0.028,1.712h-0.173
		c-0.299-0.891-0.799-1.531-1.636-1.531c-0.821,0-1.405,0.82-1.405,2.268c0,1.302,0.578,2.24,1.385,2.24
		c0.618,0,0.96-0.362,1.051-0.772v-0.529c0-0.173-0.05-0.327-0.229-0.396c-0.16-0.061-0.48-0.104-0.598-0.111v-0.167h2.358v0.167
		c-0.134,0.014-0.327,0.042-0.453,0.09c-0.167,0.069-0.208,0.202-0.208,0.354v1.601l-0.105,0.028l-0.396-0.432
		c-0.411,0.188-1.038,0.404-1.643,0.404C194.608,16.88,193.514,16.074,193.514,14.487"/>
	<path d="M200.117,16.622c0.124-0.006,0.474-0.055,0.563-0.089c0.167-0.064,0.216-0.195,0.216-0.349v-3.958h-0.243
		c-0.162,0-0.375,0.007-0.536,0.028c-0.3,0.043-0.675,0.71-0.758,1.016h-0.174v-1.245h4.348v1.245h-0.174
		c-0.084-0.306-0.459-0.973-0.759-1.016c-0.16-0.021-0.355-0.028-0.536-0.028h-0.242v3.924c0,0.153,0.056,0.278,0.216,0.347
		c0.082,0.036,0.438,0.112,0.562,0.125v0.154h-2.483V16.622z"/>
	<path d="M208.325,14.391c0-1.114-0.354-2.263-1.403-2.263c-0.897,0-1.413,0.869-1.413,2.289c0,1.225,0.425,2.255,1.413,2.255
		C207.903,16.672,208.325,15.662,208.325,14.391 M205.197,16.233c-0.454-0.424-0.738-1.024-0.738-1.781
		c0-0.793,0.264-1.419,0.731-1.865c0.465-0.444,1.062-0.681,1.731-0.681c0.654,0,1.259,0.214,1.745,0.681
		c0.439,0.417,0.711,1.043,0.711,1.78c0,0.745-0.246,1.406-0.752,1.879c-0.445,0.412-1.01,0.646-1.732,0.646
		C206.246,16.893,205.647,16.659,205.197,16.233"/>
	<path d="M211.34,12.992v2.455c0,0.536,0.083,0.828,0.234,0.953c0.12,0.097,0.558,0.208,0.684,0.222v0.154h-2.053v-0.154
		c0.118-0.014,0.521-0.104,0.642-0.187c0.158-0.119,0.222-0.418,0.222-0.953v-2.434c0-0.21-0.071-0.418-0.216-0.551
		c-0.161-0.139-0.48-0.279-0.703-0.313v-0.16h1.566l2.719,3.458v-2.143c0-0.515-0.084-0.835-0.235-0.946
		c-0.126-0.09-0.543-0.201-0.683-0.215v-0.153h2.045v0.153c-0.118,0.014-0.5,0.083-0.641,0.181
		c-0.165,0.118-0.222,0.451-0.222,0.938v3.514h-0.354L211.34,12.992z"/>
</g>
</svg>
