<?xml version="1.0" encoding="utf-8"?>
<!-- Generator: Adobe Illustrator 15.1.0, SVG Export Plug-In . SVG Version: 6.00 Build 0)  -->
<!DOCTYPE svg PUBLIC "-//W3C//DTD SVG 1.0//EN" "http://www.w3.org/TR/2001/REC-SVG-20010904/DTD/svg10.dtd">
<svg version="1.0" id="Layer_1" xmlns="http://www.w3.org/2000/svg" xmlns:xlink="http://www.w3.org/1999/xlink" x="0px" y="0px"
	 width="500px" height="62.43px" viewBox="0 0 500 62.43" enable-background="new 0 0 500 62.43" xml:space="preserve">
<polygon fill="#BD1E8D" points="0,0 0,62.43 268.553,62.43 268.553,62.17 237.533,31.148 268.553,0.128 268.553,0 "/>
<g>
	<path fill="#FFFFFF" d="M211.958,49.526c-0.093,0.239-0.216,0.399-0.274,0.472c-0.055,0.07-0.051,0.123-0.179,0.111
		c-0.122-0.012-0.343-0.163-0.521-0.398c-0.183-0.235-0.336-0.538-0.442-0.866c-0.109-0.323-0.179-0.694-0.205-1.034
		c-0.029-0.385-0.011-0.746,0.029-1.131c0.095-0.873,0.331-1.755,0.646-2.63c0.276,0.581,0.52,1.164,0.712,1.738
		c0.227,0.688,0.4,1.362,0.449,1.991C212.226,48.398,212.15,49.053,211.958,49.526 M198.67,13.438
		c0.051-0.282,0.144-0.54,0.241-0.725c0.1-0.189,0.175-0.268,0.187-0.308c0.002-0.004,0.008-0.011,0.01-0.016
		c0.007-0.002-0.09-0.01-0.008-0.01l0.07-0.002c-0.062-0.009-0.021-0.021-0.004-0.025c0.04-0.002,0.108,0.007,0.195,0.058
		c0.168,0.097,0.375,0.317,0.526,0.59c0.16,0.274,0.275,0.599,0.358,0.939c0.042,0.171,0.064,0.35,0.086,0.526
		c0.009,0.089,0.016,0.175,0.021,0.266l0.002,0.066c0,0.025,0,0.021,0,0.058v0.162c-0.002,0.336-0.041,0.736-0.102,1.109
		c-0.106,0.647-0.288,1.293-0.507,1.939c-0.285-0.608-0.535-1.214-0.736-1.804c-0.109-0.336-0.205-0.667-0.273-0.988l-0.042-0.237
		c-0.009-0.042-0.016-0.079-0.023-0.119l-0.01-0.06c-0.002-0.044-0.004-0.002-0.009-0.04l-0.011-0.157l-0.014-0.095
		c-0.007-0.07-0.013-0.15-0.015-0.225C198.6,14.032,198.618,13.721,198.67,13.438 M187.228,48.996
		c-0.053,0.299-0.148,0.575-0.261,0.783c-0.113,0.212-0.23,0.328-0.287,0.371c-0.021,0.009,0.03,0.004,0.014,0.018l-0.079,0.01
		c-0.046,0.004,0.062,0.002,0.009,0.004c-0.016,0.01-0.04,0.014-0.064,0.014c-0.052,0.005-0.132-0.009-0.223-0.063
		c-0.184-0.1-0.394-0.325-0.554-0.608c-0.331-0.563-0.492-1.305-0.492-2.038c0-0.754,0.135-1.526,0.345-2.299
		c0.106-0.383,0.228-0.763,0.362-1.14c0.164,0.336,0.32,0.669,0.466,1.008c0.299,0.684,0.535,1.371,0.688,2.032l0.051,0.239
		l0.02,0.109l0.02,0.161c0.022,0.128,0.034,0.31,0.044,0.461C187.303,48.379,187.282,48.697,187.228,48.996 M173.616,13.682
		c0.038-0.297,0.112-0.579,0.212-0.802c0.095-0.228,0.21-0.382,0.256-0.435c0.031-0.026,0.014-0.049,0.058-0.066
		c-0.009-0.018,0.044-0.034,0.099-0.021c0.126,0.028,0.338,0.183,0.508,0.424c0.354,0.48,0.57,1.196,0.616,1.906
		c0.049,0.723-0.056,1.49-0.241,2.261c-0.102,0.399-0.23,0.8-0.367,1.198c-0.09-0.194-0.179-0.377-0.261-0.565
		c-0.306-0.686-0.563-1.367-0.728-2.022c-0.083-0.333-0.144-0.642-0.165-0.968C173.575,14.3,173.58,13.974,173.616,13.682
		 M162.006,49.168c-0.056,0.27-0.153,0.502-0.237,0.647c-0.04,0.07-0.074,0.126-0.088,0.158c-0.004,0.018-0.016,0.029-0.011,0.045
		c0.011,0.002,0.021,0.002,0.033,0.009c0.029,0-0.031,0.01-0.049,0.01c-0.07,0.004,0,0.009-0.002,0.009l-0.008,0.009
		c-0.025,0.055-0.188,0.055-0.387-0.104c-0.192-0.146-0.387-0.413-0.533-0.707c-0.148-0.297-0.259-0.641-0.321-0.991
		c-0.015-0.091-0.033-0.179-0.044-0.268c-0.01-0.099-0.017-0.16-0.026-0.269c-0.016-0.189-0.016-0.371-0.007-0.565
		c0.012-0.376,0.058-0.765,0.13-1.149c0.104-0.58,0.266-1.154,0.465-1.729c0.336,0.725,0.621,1.442,0.837,2.138
		c0.051,0.166,0.095,0.328,0.133,0.494c0.042,0.15,0.08,0.332,0.104,0.458c0.007,0.032,0.016,0.06,0.02,0.125l0.012,0.079
		c0.002,0.014,0.007,0.086,0.009,0.051c0.012,0.073,0.021,0.148,0.03,0.226c0.016,0.151,0.026,0.306,0.026,0.456
		C162.092,48.603,162.063,48.897,162.006,49.168 M148.801,13.107c0.068-0.255,0.179-0.464,0.25-0.577
		c0.037-0.057,0.059-0.09,0.065-0.119c0.002-0.007,0.005-0.014,0.012-0.018c0-0.004,0.002-0.004,0.004-0.009
		c0.053,0-0.08-0.012-0.025-0.012l0.078-0.004c0.026,0-0.009-0.002-0.011-0.005c-0.028-0.011,0-0.009,0-0.018
		c0.066-0.035,0.273,0.029,0.463,0.23c0.193,0.187,0.37,0.462,0.5,0.778c0.268,0.635,0.365,1.375,0.305,2.127
		c-0.049,0.759-0.229,1.542-0.478,2.308c-0.036,0.115-0.081,0.232-0.122,0.351c-0.206-0.438-0.398-0.877-0.563-1.308
		c-0.259-0.677-0.46-1.337-0.553-1.96C148.624,14.266,148.655,13.621,148.801,13.107 M227.133,14.045
		c-0.039-0.475-0.12-0.955-0.264-1.434c-0.146-0.478-0.354-0.962-0.713-1.422c-0.186-0.234-0.408-0.459-0.709-0.639
		c-0.148-0.09-0.312-0.167-0.496-0.223c-0.044-0.016-0.093-0.023-0.139-0.035c-0.044-0.009-0.092-0.023-0.155-0.025
		c-0.049-0.009-0.142-0.02-0.153-0.02l-0.079-0.002c-0.002-0.002-0.009-0.002-0.013-0.002c-0.496-0.018-0.913,0.369-0.932,0.869
		c-0.019,0.493,0.368,0.913,0.865,0.926l0.08,0.003c0.04,0,0.002,0.002,0.004,0.002c-0.009-0.002-0.004-0.002,0.002,0
		c0.005,0.002,0.01,0,0.017,0.002c0.023,0.004,0.051,0.02,0.083,0.039c0.067,0.035,0.151,0.112,0.234,0.213
		c0.169,0.204,0.32,0.507,0.424,0.836c0.21,0.665,0.278,1.457,0.227,2.192c-0.125,1.512-0.716,3.062-1.416,4.547
		c-0.708,1.485-1.554,2.936-2.445,4.355c-0.895,1.423-1.839,2.825-2.799,4.221c-1.918,2.795-3.899,5.565-5.722,8.475
		c-0.199,0.321-0.396,0.643-0.593,0.964c-0.111-0.199-0.218-0.402-0.332-0.602c-0.864-1.534-1.797-3-2.747-4.435
		c-0.961-1.428-1.921-2.839-2.884-4.229c-0.966-1.388-1.913-2.777-2.848-4.147c-0.921-1.371-1.832-2.738-2.654-4.107
		c-0.062-0.104-0.122-0.206-0.182-0.308c0.157-0.332,0.31-0.665,0.451-1.01c0.338-0.82,0.632-1.675,0.825-2.585
		c0.095-0.46,0.162-0.911,0.188-1.422l0.004-0.161l0.004-0.19c0-0.125,0-0.248-0.007-0.368c-0.007-0.25-0.033-0.496-0.069-0.744
		c-0.067-0.493-0.194-0.986-0.396-1.486c-0.21-0.492-0.486-0.999-0.971-1.448c-0.239-0.223-0.54-0.431-0.902-0.57
		c-0.189-0.072-0.356-0.121-0.632-0.155l-0.085-0.012c0.03-0.005-0.121-0.012-0.167-0.007c-0.104-0.002-0.206,0-0.31,0.011
		c-0.409,0.044-0.8,0.181-1.116,0.36c-0.327,0.183-0.597,0.402-0.82,0.632c-0.453,0.466-0.763,0.973-0.999,1.485
		c-0.239,0.52-0.403,1.044-0.503,1.585c-0.027,0.135-0.049,0.261-0.067,0.405l-0.048,0.387l-0.016,0.221
		c-0.002,0.066-0.004,0.131-0.009,0.199c-0.008,0.135-0.008,0.263-0.008,0.396c0.006,0.526,0.053,1.035,0.13,1.53
		c0.157,0.988,0.426,1.915,0.749,2.791c0.321,0.878,0.686,1.717,1.075,2.532c0.097,0.199,0.199,0.392,0.298,0.586
		c-0.807,1.413-1.691,2.787-2.59,4.154c-1.875,2.82-3.864,5.578-5.774,8.41c-0.519,0.773-1.029,1.559-1.527,2.352
		c-0.702-1.266-1.45-2.49-2.235-3.673c-0.944-1.452-1.928-2.858-2.896-4.253c-1.941-2.789-3.857-5.548-5.592-8.296
		c-0.34-0.544-0.674-1.089-0.99-1.635c0.026-0.056,0.054-0.111,0.079-0.166c0.366-0.804,0.697-1.631,0.955-2.502
		c0.261-0.869,0.449-1.788,0.456-2.773c0-0.979-0.153-1.981-0.66-2.974c-0.27-0.484-0.625-0.999-1.253-1.381
		c-0.313-0.188-0.678-0.333-1.112-0.371c-0.179-0.022-0.404-0.014-0.603,0.015c-0.204,0.023-0.398,0.079-0.583,0.146
		c-0.737,0.29-1.233,0.776-1.604,1.255c-0.366,0.486-0.621,1-0.813,1.524c-0.192,0.526-0.316,1.043-0.382,1.602
		c-0.067,0.521-0.075,1.06-0.049,1.573c0.058,1.034,0.264,1.994,0.533,2.905c0.267,0.917,0.609,1.779,0.977,2.613
		c0.207,0.461,0.424,0.91,0.647,1.353c-0.579,0.95-1.196,1.881-1.821,2.811c-1.899,2.784-3.892,5.533-5.764,8.398
		c-0.776,1.176-1.531,2.377-2.258,3.602c-1.291-2.245-2.741-4.319-4.17-6.37c-1.966-2.794-3.922-5.546-5.692-8.316
		c-0.657-1.023-1.3-2.047-1.881-3.079c0.249-0.532,0.478-1.077,0.677-1.64c0.304-0.838,0.556-1.713,0.682-2.647
		c0.12-0.936,0.106-1.925-0.156-2.909c-0.137-0.493-0.329-0.991-0.65-1.481c-0.322-0.469-0.807-0.984-1.571-1.239
		c-0.102-0.028-0.175-0.053-0.31-0.074l-0.248-0.04c-0.002-0.004-0.188-0.004-0.185-0.004c-0.051,0-0.102-0.002-0.153,0.002
		c-0.102,0.002-0.205,0.015-0.307,0.03c-0.405,0.062-0.771,0.226-1.081,0.415c-0.617,0.387-1.022,0.885-1.342,1.38
		c-0.628,1.005-0.908,2.082-0.993,3.173c-0.072,1.082,0.058,2.101,0.275,3.054c0.22,0.955,0.531,1.848,0.875,2.706
		c0.333,0.815,0.703,1.598,1.092,2.358c-0.283,0.459-0.57,0.916-0.867,1.362c-1.863,2.806-3.896,5.519-5.831,8.326
		c-0.966,1.405-1.923,2.823-2.84,4.278c-0.917,1.461-1.793,2.947-2.557,4.525c-0.379,0.791-0.729,1.601-1.024,2.446
		c-0.29,0.851-0.528,1.732-0.632,2.665c-0.104,0.928-0.069,1.93,0.244,2.89c0.159,0.48,0.382,0.959,0.75,1.403
		c0.186,0.226,0.412,0.438,0.708,0.609c0.29,0.174,0.661,0.288,1.036,0.288c0.431-0.005,0.799-0.331,0.838-0.772
		c0.044-0.464-0.296-0.875-0.762-0.92l-0.078-0.005c-0.048-0.005-0.1-0.012-0.176-0.059c-0.071-0.048-0.162-0.128-0.246-0.23
		c-0.172-0.212-0.32-0.513-0.424-0.838c-0.204-0.665-0.234-1.399-0.137-2.158c0.192-1.516,0.802-3.055,1.52-4.528
		c0.726-1.48,1.584-2.917,2.483-4.335c0.904-1.413,1.858-2.81,2.824-4.199c1.933-2.782,3.878-5.583,5.668-8.518
		c0.125-0.206,0.253-0.419,0.377-0.625c0.16,0.278,0.323,0.559,0.484,0.837c1.837,2.995,3.86,5.761,5.773,8.547
		c0.959,1.394,1.91,2.77,2.807,4.158c0.911,1.38,1.782,2.762,2.569,4.14c0.03,0.062,0.062,0.117,0.095,0.172
		c-0.095,0.213-0.192,0.421-0.283,0.64c-0.338,0.811-0.644,1.654-0.858,2.544c-0.212,0.889-0.34,1.82-0.256,2.816
		c0.042,0.488,0.128,0.981,0.285,1.475c0.163,0.493,0.382,0.995,0.762,1.476c0.195,0.23,0.427,0.47,0.728,0.667
		c0.296,0.192,0.672,0.347,1.074,0.404l0.153,0.016c0.049,0.005,0.17,0.003,0.156,0.005c0.036,0,0.027,0.011,0.109,0.002
		c0.062-0.002,0.127-0.004,0.189-0.014c0.213-0.021,0.412-0.062,0.6-0.126c0.38-0.127,0.7-0.321,0.975-0.53
		c0.543-0.429,0.913-0.932,1.198-1.438c0.283-0.512,0.486-1.037,0.622-1.572c0.07-0.27,0.125-0.542,0.162-0.812
		c0.018-0.138,0.034-0.273,0.049-0.412c0.002-0.085,0.007-0.072,0.009-0.112l0.007-0.077c0.004-0.048,0.009-0.125,0.009-0.194
		c0.009-0.299,0.009-0.544-0.002-0.812c-0.012-0.261-0.038-0.514-0.065-0.764c-0.125-1.013-0.375-1.953-0.688-2.84
		c-0.312-0.892-0.66-1.746-1.056-2.564c-0.154-0.318-0.313-0.631-0.475-0.942c0.007-0.014,0.014-0.025,0.021-0.037
		c0.885-1.422,1.844-2.807,2.817-4.189c1.951-2.762,3.956-5.51,5.806-8.396c0.436-0.674,0.86-1.353,1.271-2.039
		c0.744,1.304,1.541,2.555,2.363,3.769c0.959,1.438,1.953,2.829,2.928,4.218c1.955,2.776,3.89,5.516,5.62,8.267
		c0.287,0.462,0.567,0.918,0.831,1.387c-0.368,0.784-0.701,1.591-0.966,2.436c-0.269,0.861-0.469,1.761-0.504,2.716l-0.007,0.348
		c0.002,0.123,0.004,0.258,0.011,0.374c0.014,0.246,0.042,0.485,0.079,0.73c0.071,0.493,0.208,0.973,0.414,1.457
		c0.216,0.479,0.506,0.968,0.99,1.396c0.243,0.206,0.542,0.396,0.898,0.518c0.179,0.057,0.369,0.101,0.563,0.118
		c0.002,0.002,0.164,0.005,0.172,0.005l0.08,0.007c0.089-0.005,0.25-0.017,0.332-0.034c0.387-0.055,0.737-0.199,1.037-0.38
		c0.296-0.186,0.543-0.398,0.759-0.627c0.421-0.45,0.709-0.95,0.934-1.45c0.224-0.507,0.378-1.022,0.477-1.548
		c0.049-0.271,0.079-0.515,0.1-0.81l0.014-0.161l0.009-0.21c0.002-0.145,0.002-0.264,0.002-0.392
		c-0.002-1.031-0.181-2.006-0.417-2.925c-0.244-0.927-0.561-1.798-0.92-2.641c-0.266-0.631-0.556-1.236-0.856-1.836
		c0.597-1.034,1.231-2.05,1.89-3.052c1.844-2.833,3.853-5.573,5.799-8.376c0.773-1.107,1.531-2.23,2.266-3.37
		c1.337,2.393,2.858,4.596,4.381,6.76l2.942,4.14c0.978,1.365,1.93,2.725,2.845,4.09c0.584,0.883,1.15,1.778,1.667,2.664
		c-0.241,0.518-0.471,1.042-0.677,1.587c-0.31,0.83-0.585,1.694-0.736,2.617c-0.075,0.459-0.115,0.942-0.115,1.414
		c0.005,0.509,0.054,0.981,0.161,1.479c0.109,0.496,0.271,0.989,0.537,1.479c0.271,0.479,0.642,0.99,1.284,1.356
		c0.316,0.177,0.706,0.299,1.112,0.318c0.187-0.001,0.085,0.012,0.271,0.003c0.06-0.004,0.128-0.009,0.183-0.018l0.148-0.022
		c0.196-0.036,0.391-0.096,0.565-0.166c0.714-0.305,1.183-0.789,1.541-1.269c0.356-0.488,0.604-1.003,0.787-1.521
		c0.179-0.521,0.301-1.054,0.354-1.588c0.112-1.072,0.01-2.1-0.192-3.05c-0.199-0.955-0.498-1.851-0.825-2.715
		c-0.354-0.926-0.757-1.812-1.181-2.674c0.34-0.579,0.697-1.151,1.061-1.72c1.834-2.823,3.833-5.563,5.785-8.362
		c0.975-1.399,1.937-2.812,2.858-4.26c0.92-1.452,1.802-2.939,2.562-4.518c0.38-0.79,0.727-1.603,1.014-2.456
		c0.283-0.854,0.508-1.74,0.589-2.684c0.011-0.116,0.019-0.237,0.026-0.362c0.007-0.137,0.007-0.199,0.007-0.35
		C227.166,14.521,227.157,14.286,227.133,14.045"/>
	<path fill="#010101" d="M272.186,27.301v7.501c0,1.634,0.254,2.527,0.725,2.909c0.359,0.296,1.697,0.639,2.079,0.679v0.47h-6.269
		v-0.47c0.361-0.04,1.592-0.316,1.954-0.571c0.493-0.36,0.684-1.274,0.684-2.913V27.47c0-0.637-0.213-1.278-0.66-1.68
		c-0.489-0.425-1.467-0.851-2.148-0.959v-0.486h4.786l8.307,10.562V28.36c0-1.571-0.249-2.548-0.725-2.889
		c-0.379-0.278-1.653-0.616-2.08-0.658v-0.468h6.248v0.468c-0.362,0.042-1.534,0.252-1.954,0.554
		c-0.517,0.361-0.686,1.38-0.686,2.87v10.735h-1.08L272.186,27.301z"/>
	<path fill="#010101" d="M286.834,38.507c0.289-0.014,0.95-0.096,1.161-0.175c0.384-0.145,0.499-0.424,0.499-0.776v-8.267
		c0-0.352-0.115-0.612-0.499-0.773c-0.293-0.115-0.854-0.274-1.161-0.307v-0.354h5.461v0.354c-0.29,0.032-0.887,0.128-1.177,0.227
		c-0.385,0.13-0.479,0.42-0.479,0.771v8.268c0,0.355,0.129,0.613,0.479,0.773c0.194,0.081,0.887,0.225,1.177,0.257v0.355h-5.461
		V38.507z"/>
	<path fill="#010101" d="M294.926,33.493c0-3.4,2.419-5.882,5.704-5.882c1.044,0,2.028,0.387,2.61,0.809l0.447-0.725h0.615
		l0.065,4.042h-0.405c-0.658-2.124-1.802-3.624-3.596-3.624c-1.688,0-3.043,1.838-3.043,5.189c0,3.108,1.531,4.932,3.531,4.932
		c1.816,0,2.786-0.967,3.513-2.432l0.438,0.224c-0.697,1.598-2.066,3.08-4.468,3.08C297.208,39.104,294.926,36.96,294.926,33.493"/>
	<path fill="#010101" d="M316.021,33.337c0-2.58-0.821-5.242-3.258-5.242c-2.076,0-3.27,2.014-3.27,5.303
		c0,2.839,0.982,5.223,3.27,5.223C315.039,38.621,316.021,36.282,316.021,33.337 M308.77,37.603
		c-1.046-0.981-1.706-2.37-1.706-4.123c0-1.837,0.612-3.287,1.688-4.321c1.085-1.028,2.468-1.577,4.013-1.577
		c1.517,0,2.918,0.496,4.05,1.577c1.012,0.966,1.638,2.416,1.638,4.124c0,1.724-0.561,3.258-1.737,4.353
		c-1.032,0.955-2.34,1.499-4.013,1.499C311.198,39.134,309.815,38.592,308.77,37.603"/>
	<path fill="#010101" d="M320.728,38.507c0.289-0.029,0.986-0.113,1.193-0.191c0.39-0.164,0.503-0.449,0.503-0.807v-8.189
		c0-0.355-0.1-0.629-0.503-0.804c-0.289-0.13-0.904-0.274-1.193-0.307v-0.354h5.494v0.354c-0.291,0.032-0.87,0.128-1.158,0.227
		c-0.404,0.13-0.5,0.449-0.5,0.807v7.718c0,1.322,0.227,1.434,1.818,1.434c0.872,0,1.872-0.049,2.209-0.401
		c0.483-0.502,1.227-1.755,1.452-2.416h0.385l-0.226,3.284h-9.478v-0.354H320.728z"/>
	<path fill="#010101" d="M332.346,38.507c0.29-0.029,1.032-0.113,1.258-0.207c0.385-0.148,0.503-0.421,0.503-0.791v-8.204
		c0-0.352-0.098-0.625-0.503-0.788c-0.308-0.13-0.968-0.274-1.258-0.306v-0.355h9.153v2.674h-0.433
		c-0.196-0.722-1.05-2.026-1.809-2.144c-0.385-0.048-0.822-0.064-1.319-0.064h-1.69v4.594h1.206c0.892,0,1.182-0.272,1.387-0.484
		c0.273-0.276,0.503-1.077,0.55-1.497h0.432v4.528h-0.432c-0.049-0.484-0.321-1.339-0.55-1.581
		c-0.224-0.242-0.531-0.482-1.387-0.482h-1.206v3.562c0,1.255,0.273,1.419,1.818,1.419c1.017,0,2.114,0.014,2.501-0.371
		c0.561-0.563,1.194-1.851,1.386-2.369h0.405l-0.212,3.223h-9.796v-0.358H332.346z"/>
	<path fill="#010101" d="M352.672,26.302c-0.146-0.449-0.336-0.787-0.805-1.087c-0.38-0.208-0.955-0.381-1.364-0.4v-0.471h6.868
		v0.471c-0.744,0.06-1.914,0.276-1.914,0.788c0,0.125,0.046,0.403,0.087,0.552c0.214,0.741,1.721,5.504,2.893,9.074l2.78-7.608
		c-0.131-0.871-0.407-1.89-1.189-2.378c-0.362-0.232-1.089-0.405-1.489-0.425v-0.47h7.055v0.47
		c-0.742,0.062-2.019,0.276-2.019,0.789c0,0.148,0.046,0.381,0.086,0.55c0.21,0.679,1.806,5.465,2.997,9.013
		c0.931-2.511,2.103-5.934,2.505-7.231c0.321-1.041,0.447-1.615,0.447-1.972c0-0.749-1.379-1.065-2.361-1.149v-0.47h5.719v0.47
		c-0.385,0.04-0.937,0.212-1.361,0.445c-0.552,0.297-0.914,0.997-1.211,1.808c-0.722,1.932-3.144,8.736-4.313,11.964h-1.145
		c-1.019-3.294-2.617-8.372-3.299-10.394l-3.8,10.394h-1.173C355.398,34.907,353.118,27.766,352.672,26.302"/>
	<path fill="#010101" d="M381.631,33.337c0-2.58-0.818-5.242-3.248-5.242c-2.081,0-3.276,2.014-3.276,5.303
		c0,2.839,0.982,5.223,3.276,5.223C380.649,38.621,381.631,36.282,381.631,33.337 M374.379,37.603
		c-1.048-0.981-1.706-2.37-1.706-4.123c0-1.837,0.613-3.287,1.69-4.321c1.081-1.028,2.463-1.577,4.015-1.577
		c1.512,0,2.914,0.496,4.046,1.577c1.014,0.966,1.638,2.416,1.638,4.124c0,1.724-0.561,3.258-1.738,4.353
		c-1.031,0.955-2.339,1.499-4.008,1.499C376.812,39.134,375.428,38.592,374.379,37.603"/>
	<path fill="#010101" d="M390.514,33.075c1.416,0,2.624-0.563,2.624-2.417c0-1.756-0.978-2.337-2.27-2.337h-1.016v4.754H390.514z
		 M392.961,36.345c-0.174-1.494-0.498-2.786-2.172-2.786h-0.937v3.932c0,0.358,0.113,0.645,0.484,0.792
		c0.208,0.076,0.873,0.19,1.163,0.225v0.354h-5.479v-0.354c0.285-0.016,0.981-0.113,1.189-0.193c0.392-0.144,0.501-0.435,0.501-0.81
		v-8.232c0-0.352-0.096-0.662-0.501-0.808c-0.287-0.11-0.904-0.223-1.189-0.258v-0.354h5.75c2.032,0,3.77,0.741,3.77,2.498
		c0,1.758-1.658,2.503-2.963,2.854v0.133c0.791,0.095,2.06,0.493,2.388,1.669c0.24,0.889,0.321,1.583,0.512,2.353
		c0.163,0.629,0.502,0.758,0.773,0.758c0.407,0,0.761-0.466,0.761-1.469v-0.337h0.448l-0.017,0.353
		c-0.016,1.419-0.595,2.369-2.208,2.369C393.882,39.038,393.208,38.264,392.961,36.345"/>
	<path fill="#010101" d="M400.86,38.507c0.29-0.014,1.101-0.129,1.304-0.207c0.389-0.148,0.502-0.451,0.502-0.81v-9.167h-0.565
		c-0.37,0-0.869,0.016-1.24,0.064c-0.696,0.1-1.561,1.645-1.755,2.354H398.7v-2.884h10.074v2.884h-0.405
		c-0.191-0.709-1.063-2.254-1.758-2.354c-0.37-0.048-0.818-0.064-1.237-0.064h-0.563v9.091c0,0.353,0.127,0.643,0.497,0.802
		c0.195,0.084,1.017,0.262,1.304,0.291v0.354h-5.751V38.507z"/>
	<path fill="#010101" d="M410.986,38.507c0.285-0.029,0.916-0.096,1.123-0.175c0.388-0.145,0.502-0.436,0.502-0.791v-8.236
		c0-0.352-0.114-0.625-0.502-0.788c-0.272-0.114-0.838-0.274-1.123-0.306v-0.355h5.411v0.355c-0.289,0.032-0.868,0.127-1.157,0.227
		c-0.39,0.13-0.485,0.435-0.485,0.793v3.622h4.978v-3.546c0-0.352-0.131-0.625-0.499-0.787c-0.275-0.113-0.854-0.274-1.144-0.306
		v-0.355h5.4v0.355c-0.292,0.032-0.84,0.127-1.115,0.226c-0.4,0.13-0.5,0.436-0.5,0.793v8.233c0,0.354,0.134,0.612,0.5,0.789
		c0.194,0.1,0.823,0.227,1.115,0.256v0.354h-5.4v-0.354c0.29-0.014,0.932-0.095,1.144-0.174c0.384-0.146,0.499-0.435,0.499-0.792
		v-4.109h-4.978v4.03c0,0.354,0.127,0.626,0.485,0.789c0.189,0.082,0.868,0.227,1.157,0.256v0.354h-5.411V38.507z"/>
	<path fill="#010101" d="M425.872,38.507c0.29-0.014,0.95-0.096,1.163-0.175c0.384-0.145,0.5-0.424,0.5-0.776v-8.267
		c0-0.352-0.116-0.612-0.5-0.773c-0.289-0.115-0.854-0.274-1.163-0.307v-0.354h5.463v0.354c-0.289,0.032-0.886,0.128-1.178,0.227
		c-0.385,0.13-0.48,0.42-0.48,0.771v8.268c0,0.355,0.132,0.613,0.48,0.773c0.196,0.081,0.889,0.225,1.178,0.257v0.355h-5.463V38.507
		z"/>
	<path fill="#010101" d="M436.559,30.097v5.688c0,1.24,0.2,1.918,0.549,2.208c0.273,0.224,1.289,0.48,1.578,0.515v0.354h-4.753
		v-0.354c0.272-0.034,1.206-0.243,1.482-0.433c0.371-0.276,0.518-0.968,0.518-2.208v-5.64c0-0.486-0.16-0.968-0.5-1.276
		c-0.371-0.322-1.111-0.647-1.626-0.725v-0.371h3.626l6.303,8.011V30.9c0-1.192-0.194-1.934-0.552-2.191
		c-0.29-0.208-1.256-0.466-1.575-0.498v-0.355h4.737v0.355c-0.278,0.032-1.162,0.191-1.483,0.419
		c-0.392,0.273-0.519,1.045-0.519,2.173v8.139h-0.821L436.559,30.097z"/>
	<path fill="#010101" d="M447.952,33.559c0-3.545,2.484-5.945,5.981-5.945c1.076,0,2.145,0.387,2.741,0.809l0.501-0.725h0.592
		l0.066,3.965h-0.403c-0.692-2.064-1.85-3.546-3.786-3.546c-1.905,0-3.258,1.899-3.258,5.252c0,3.017,1.339,5.189,3.21,5.189
		c1.432,0,2.224-0.836,2.434-1.786v-1.227c0-0.4-0.115-0.755-0.531-0.916c-0.371-0.142-1.111-0.242-1.385-0.257v-0.387h5.463v0.387
		c-0.31,0.033-0.757,0.097-1.049,0.208c-0.387,0.161-0.482,0.468-0.482,0.821v3.708l-0.244,0.065l-0.916-1
		c-0.952,0.434-2.405,0.935-3.808,0.935C450.485,39.104,447.952,37.236,447.952,33.559"/>
	<path fill="#010101" d="M463.249,38.507c0.287-0.014,1.098-0.129,1.304-0.207c0.389-0.148,0.502-0.451,0.502-0.81v-9.167h-0.565
		c-0.374,0-0.869,0.016-1.24,0.064c-0.696,0.1-1.565,1.645-1.755,2.354h-0.402v-2.884h10.071v2.884h-0.403
		c-0.193-0.709-1.063-2.254-1.76-2.354c-0.37-0.048-0.821-0.064-1.24-0.064h-0.561v9.091c0,0.353,0.13,0.643,0.5,0.802
		c0.19,0.084,1.016,0.262,1.301,0.291v0.354h-5.751V38.507L463.249,38.507z"/>
	<path fill="#010101" d="M482.264,33.337c0-2.58-0.821-5.242-3.25-5.242c-2.077,0-3.274,2.014-3.274,5.303
		c0,2.839,0.984,5.223,3.274,5.223C481.284,38.621,482.264,36.282,482.264,33.337 M475.018,37.603
		c-1.052-0.981-1.71-2.37-1.71-4.123c0-1.837,0.61-3.287,1.692-4.321c1.077-1.028,2.461-1.577,4.011-1.577
		c1.516,0,2.916,0.496,4.042,1.577c1.019,0.966,1.647,2.416,1.647,4.124c0,1.724-0.57,3.258-1.742,4.353
		c-1.031,0.955-2.339,1.499-4.013,1.499C477.447,39.134,476.059,38.592,475.018,37.603"/>
	<path fill="#010101" d="M489.247,30.097v5.688c0,1.24,0.193,1.918,0.543,2.208c0.276,0.224,1.292,0.48,1.584,0.515v0.354h-4.756
		v-0.354c0.273-0.034,1.208-0.243,1.489-0.433c0.363-0.276,0.511-0.968,0.511-2.208v-5.64c0-0.486-0.162-0.968-0.497-1.276
		c-0.376-0.322-1.113-0.647-1.629-0.725v-0.371h3.626l6.301,8.011V30.9c0-1.192-0.194-1.934-0.545-2.191
		c-0.292-0.208-1.258-0.466-1.581-0.498v-0.355h4.736v0.355c-0.275,0.032-1.158,0.191-1.486,0.419
		c-0.382,0.273-0.514,1.045-0.514,2.173v8.139h-0.82L489.247,30.097z"/>
</g>
</svg>
