<?xml version="1.0" encoding="utf-8"?>
<!-- Generator: Adobe Illustrator 15.1.0, SVG Export Plug-In . SVG Version: 6.00 Build 0)  -->
<!DOCTYPE svg PUBLIC "-//W3C//DTD SVG 1.0//EN" "http://www.w3.org/TR/2001/REC-SVG-20010904/DTD/svg10.dtd">
<svg version="1.0" id="Layer_1" xmlns="http://www.w3.org/2000/svg" xmlns:xlink="http://www.w3.org/1999/xlink" x="0px" y="0px"
	 width="208.75px" height="22.834px" viewBox="0 0 208.75 22.834" enable-background="new 0 0 208.75 22.834" xml:space="preserve">
<g>
	<path d="M203.131,19.63c0,1.786,1.437,3.206,3.224,3.206c1.295,0,2.205-0.589,2.205-0.589c0.036-0.026,0.072-0.098,0.072-0.143
		V20.06c0-0.091-0.072-0.17-0.161-0.17h-1.544c-0.1,0-0.17,0.07-0.17,0.17v0.329c0,0.09,0.07,0.16,0.17,0.16h1.026V21.8
		c0,0-0.625,0.376-1.607,0.376c-1.412,0-2.484-1.207-2.484-2.582c0-1.385,1.072-2.563,2.484-2.563c0.598,0,1.242,0.295,1.697,0.697
		c0.098,0.089,0.151,0.098,0.231,0.009c0.071-0.081,0.169-0.17,0.25-0.251c0.071-0.071,0.062-0.178-0.009-0.25
		c-0.607-0.518-1.259-0.829-2.161-0.829C204.567,16.406,203.131,17.843,203.131,19.63 M195.823,22.577
		c0,0.089,0.08,0.169,0.169,0.169h0.313c0.098,0,0.169-0.08,0.169-0.169v-4.859h0.009l4.047,5.047
		c0.036,0.054,0.08,0.071,0.144,0.071h0.07c0.09,0,0.17-0.071,0.17-0.161v-6.01c0-0.09-0.08-0.17-0.17-0.17h-0.312
		c-0.098,0-0.17,0.08-0.17,0.17v4.76h-0.019l-3.975-4.947c-0.036-0.055-0.08-0.071-0.143-0.071h-0.135
		c-0.089,0-0.169,0.071-0.169,0.16V22.577z M192.519,22.577c0,0.089,0.08,0.169,0.17,0.169h0.356c0.09,0,0.17-0.08,0.17-0.169
		v-5.912c0-0.09-0.08-0.17-0.17-0.17h-0.356c-0.09,0-0.17,0.08-0.17,0.17V22.577z M186.524,19.71v-2.563h1.733
		c0.688,0,1.287,0.581,1.287,1.26c0,0.733-0.6,1.304-1.287,1.304H186.524z M185.819,22.577c0,0.089,0.071,0.169,0.169,0.169h0.349
		c0.089,0,0.17-0.08,0.17-0.169v-2.278h1.706l1.162,2.313c0.045,0.09,0.089,0.134,0.196,0.134H190c0.15,0,0.214-0.143,0.15-0.259
		l-1.223-2.269c0.777-0.312,1.321-1,1.321-1.821c0-1.064-0.874-1.902-1.946-1.902h-2.314c-0.098,0-0.169,0.08-0.169,0.169V22.577z
		 M179.781,22.577c0,0.089,0.071,0.169,0.17,0.169h3.519c0.098,0,0.17-0.08,0.17-0.169v-0.259c0-0.089-0.072-0.169-0.17-0.169
		h-3.001V19.87h2.562c0.089,0,0.17-0.071,0.17-0.169v-0.259c0-0.089-0.081-0.169-0.17-0.169h-2.562v-2.182h3.001
		c0.098,0,0.17-0.079,0.17-0.169v-0.259c0-0.089-0.072-0.169-0.17-0.169h-3.519c-0.099,0-0.17,0.08-0.17,0.169V22.577z
		 M175.396,22.577c0,0.089,0.081,0.169,0.17,0.169h0.339c0.09,0,0.17-0.08,0.17-0.169v-5.485h1.553c0.099,0,0.17-0.079,0.17-0.169
		v-0.259c0-0.089-0.071-0.169-0.17-0.169h-3.785c-0.098,0-0.17,0.08-0.17,0.169v0.259c0,0.09,0.072,0.169,0.17,0.169h1.554V22.577z
		 M169.912,22.577c0,0.089,0.08,0.169,0.168,0.169h0.34c0.089,0,0.17-0.08,0.17-0.169v-5.485h1.554c0.099,0,0.17-0.079,0.17-0.169
		v-0.259c0-0.089-0.071-0.169-0.17-0.169h-3.786c-0.099,0-0.17,0.08-0.17,0.169v0.259c0,0.09,0.071,0.169,0.17,0.169h1.555V22.577z
		 M162.774,22.577c0,0.089,0.071,0.169,0.171,0.169h3.518c0.098,0,0.17-0.08,0.17-0.169v-0.259c0-0.089-0.072-0.169-0.17-0.169
		h-3.002V19.87h2.563c0.091,0,0.171-0.071,0.171-0.169v-0.259c0-0.089-0.08-0.169-0.171-0.169h-2.563v-2.182h3.002
		c0.098,0,0.17-0.079,0.17-0.169v-0.259c0-0.089-0.072-0.169-0.17-0.169h-3.518c-0.1,0-0.171,0.08-0.171,0.169V22.577z
		 M157.469,22.577c0,0.089,0.072,0.169,0.17,0.169h3.09c0.098,0,0.169-0.08,0.169-0.169v-0.259c0-0.089-0.071-0.169-0.169-0.169
		h-2.572v-5.484c0-0.09-0.08-0.17-0.17-0.17h-0.348c-0.098,0-0.17,0.08-0.17,0.17V22.577z M150.191,21.344
		c0,0.09,0.08,0.161,0.169,0.161h0.25c0.089,0,0.169-0.071,0.169-0.161v-1.401h1.412c0.09,0,0.16-0.081,0.16-0.17v-0.249
		c0-0.09-0.07-0.17-0.16-0.17h-1.412v-1.411c0-0.089-0.08-0.161-0.169-0.161h-0.25c-0.089,0-0.169,0.072-0.169,0.161v1.411h-1.402
		c-0.09,0-0.17,0.08-0.17,0.17v0.249c0,0.089,0.08,0.17,0.17,0.17h1.402V21.344z M138.412,22.577c0,0.089,0.08,0.169,0.17,0.169
		h0.312c0.099,0,0.169-0.08,0.169-0.169v-4.859h0.01l4.047,5.047c0.035,0.054,0.08,0.071,0.143,0.071h0.07
		c0.09,0,0.17-0.071,0.17-0.161v-6.01c0-0.09-0.08-0.17-0.17-0.17h-0.312c-0.099,0-0.169,0.08-0.169,0.17v4.76h-0.018l-3.977-4.947
		c-0.035-0.055-0.08-0.071-0.142-0.071h-0.134c-0.09,0-0.17,0.071-0.17,0.16V22.577z M130.57,19.63c0,1.786,1.437,3.206,3.223,3.206
		c1.295,0,2.207-0.589,2.207-0.589c0.035-0.026,0.07-0.098,0.07-0.143V20.06c0-0.091-0.07-0.17-0.16-0.17h-1.545
		c-0.098,0-0.168,0.07-0.168,0.17v0.329c0,0.09,0.07,0.16,0.168,0.16h1.027V21.8c0,0-0.625,0.376-1.607,0.376
		c-1.412,0-2.484-1.207-2.484-2.582c0-1.385,1.072-2.563,2.484-2.563c0.599,0,1.241,0.295,1.697,0.697
		c0.098,0.089,0.151,0.098,0.23,0.009c0.072-0.081,0.171-0.17,0.25-0.251c0.072-0.071,0.063-0.178-0.008-0.25
		c-0.606-0.518-1.258-0.829-2.162-0.829C132.007,16.406,130.57,17.843,130.57,19.63 M127.658,22.577c0,0.089,0.08,0.169,0.17,0.169
		h0.355c0.09,0,0.17-0.08,0.17-0.169v-5.912c0-0.09-0.08-0.17-0.17-0.17h-0.355c-0.09,0-0.17,0.08-0.17,0.17V22.577z
		 M121.718,22.113c0.116,0.107,0.829,0.723,1.884,0.723c1.046,0,1.93-0.714,1.93-1.643c0-1.036-0.777-1.492-1.982-1.983
		c-0.752-0.312-1.207-0.59-1.207-1.224c0-0.376,0.285-0.983,1.234-0.983c0.5,0,0.812,0.135,1.188,0.357
		c0.143,0.081,0.24,0.081,0.312-0.044l0.09-0.152c0.098-0.17,0-0.276-0.055-0.304c0,0-0.652-0.454-1.527-0.454
		c-1.42,0-1.901,0.981-1.901,1.589c0,1.019,0.588,1.394,1.571,1.813c1.027,0.438,1.563,0.795,1.563,1.412
		c0,0.562-0.474,1.018-1.198,1.018c-0.795,0-1.474-0.598-1.535-0.652c-0.125-0.106-0.196-0.062-0.287,0.055l-0.133,0.169
		C121.539,21.971,121.646,22.051,121.718,22.113 M116.019,22.577c0,0.089,0.072,0.169,0.17,0.169h3.519
		c0.099,0,0.17-0.08,0.17-0.169v-0.259c0-0.089-0.071-0.169-0.17-0.169h-3.002V19.87h2.564c0.089,0,0.169-0.071,0.169-0.169v-0.259
		c0-0.089-0.08-0.169-0.169-0.169h-2.564v-2.182h3.002c0.099,0,0.17-0.079,0.17-0.169v-0.259c0-0.089-0.071-0.169-0.17-0.169h-3.519
		c-0.098,0-0.17,0.08-0.17,0.169V22.577z M109.176,22.131v-5.029h1.402c1.465,0,2.494,1.045,2.494,2.511
		c0,1.474-1.029,2.519-2.494,2.519H109.176z M108.498,22.577c0,0.089,0.072,0.169,0.16,0.169h2.002c1.724,0,3.133-1.4,3.133-3.134
		c0-1.716-1.409-3.117-3.133-3.117h-2.002c-0.088,0-0.16,0.08-0.16,0.169V22.577z M98.354,19.63c0,1.786,1.437,3.206,3.223,3.206
		c0.795,0,1.537-0.33,2.126-0.865c0.063-0.062,0.08-0.188,0.009-0.241l-0.205-0.205c-0.072-0.072-0.143-0.081-0.233-0.009
		c-0.473,0.401-0.929,0.67-1.706,0.67c-1.411,0-2.492-1.189-2.492-2.564c0-1.385,1.081-2.573,2.492-2.573
		c0.652,0,1.242,0.269,1.706,0.67c0.09,0.09,0.161,0.099,0.233,0.01l0.241-0.242c0.071-0.071,0.062-0.178-0.009-0.25
		c-0.608-0.518-1.26-0.829-2.162-0.829C99.791,16.406,98.354,17.843,98.354,19.63 M95.441,22.577c0,0.089,0.08,0.169,0.169,0.169
		h0.357c0.089,0,0.17-0.08,0.17-0.169v-5.912c0-0.09-0.081-0.17-0.17-0.17h-0.357c-0.089,0-0.169,0.08-0.169,0.17V22.577z
		 M87.832,22.577c0,0.089,0.08,0.169,0.169,0.169h0.348c0.098,0,0.169-0.08,0.169-0.169V19.87h3.628v2.707
		c0,0.089,0.071,0.169,0.169,0.169h0.348c0.089,0,0.17-0.08,0.17-0.169v-5.912c0-0.09-0.081-0.17-0.17-0.17h-0.348
		c-0.098,0-0.169,0.08-0.169,0.17v2.608h-3.628v-2.608c0-0.09-0.071-0.17-0.169-0.17H88c-0.089,0-0.169,0.08-0.169,0.17V22.577z
		 M82.318,19.818v-2.646h1.421c0.733,0,1.359,0.482,1.359,1.277c0,0.823-0.626,1.368-1.359,1.368H82.318z M81.642,22.577
		c0,0.089,0.071,0.169,0.169,0.169h0.339c0.089,0,0.169-0.08,0.169-0.169v-2.099h1.475c1.09,0,1.991-0.902,1.991-2.011
		c0-1.08-0.901-1.973-2-1.973h-1.974c-0.098,0-0.169,0.08-0.169,0.169V22.577z M75.576,20.622l1.304-2.93h0.072
		c0.437,0.973,0.866,1.956,1.304,2.93H75.576z M74.165,22.746h0.357c0.081,0,0.134-0.053,0.152-0.098l0.652-1.475h3.171l0.661,1.475
		c0.018,0.045,0.072,0.098,0.152,0.098h0.357c0.134,0,0.206-0.116,0.152-0.231l-2.697-6.011c-0.027-0.054-0.072-0.098-0.152-0.098
		h-0.09c-0.08,0-0.125,0.044-0.151,0.098l-2.716,6.011C73.958,22.63,74.031,22.746,74.165,22.746 M68.813,19.71v-2.563h1.734
		c0.688,0,1.286,0.581,1.286,1.26c0,0.733-0.598,1.304-1.286,1.304H68.813z M68.108,22.577c0,0.089,0.072,0.169,0.17,0.169h0.348
		c0.089,0,0.169-0.08,0.169-0.169v-2.278h1.707l1.161,2.313c0.045,0.09,0.09,0.134,0.197,0.134h0.428
		c0.152,0,0.214-0.143,0.152-0.259l-1.223-2.269c0.777-0.312,1.321-1,1.321-1.821c0-1.064-0.875-1.902-1.947-1.902h-2.313
		c-0.098,0-0.17,0.08-0.17,0.169V22.577z M60.267,19.63c0,1.786,1.437,3.206,3.224,3.206c1.295,0,2.206-0.589,2.206-0.589
		c0.035-0.026,0.071-0.098,0.071-0.143V20.06c0-0.091-0.071-0.17-0.161-0.17h-1.544c-0.098,0-0.17,0.07-0.17,0.17v0.329
		c0,0.09,0.072,0.16,0.17,0.16h1.027V21.8c0,0-0.625,0.376-1.608,0.376c-1.412,0-2.484-1.207-2.484-2.582
		c0-1.385,1.072-2.563,2.484-2.563c0.599,0,1.242,0.295,1.698,0.697c0.098,0.089,0.151,0.098,0.231,0.009
		c0.072-0.081,0.17-0.17,0.25-0.251c0.071-0.071,0.063-0.178-0.009-0.25c-0.606-0.518-1.258-0.829-2.161-0.829
		C61.704,16.406,60.267,17.843,60.267,19.63"/>
	<path fill="#722E79" d="M42.34,20.595c0,0.549-0.175,1.049-0.437,1.056c-0.249-0.008-0.589-0.518-0.589-1.384
		c0-0.607,0.129-1.225,0.353-1.861C42.085,19.257,42.34,20.005,42.34,20.595 M34.895,2.318c0-0.812,0.228-1.132,0.44-1.134
		c0.24,0,0.586,0.464,0.586,1.631c0,0.513-0.125,1.071-0.349,1.678C35.151,3.646,34.895,2.904,34.895,2.318 M28.914,20.517
		c0,0.815-0.229,1.137-0.44,1.137c-0.249,0-0.596-0.514-0.596-1.387c0-0.622,0.133-1.254,0.367-1.906
		C28.66,19.2,28.914,19.937,28.914,20.517 M21.468,2.242c0-0.555,0.178-1.058,0.443-1.058c0.242,0,0.588,0.462,0.588,1.631
		c0,0.506-0.122,1.058-0.34,1.651C21.729,3.602,21.468,2.84,21.468,2.242 M15.483,20.595c0,0.549-0.177,1.049-0.438,1.056
		c-0.249-0.008-0.589-0.518-0.589-1.384c0-0.607,0.128-1.225,0.353-1.861C15.229,19.257,15.483,20.005,15.483,20.595 M8.037,2.318
		c0-0.813,0.23-1.135,0.441-1.135c0.249,0,0.596,0.513,0.596,1.388c0,0.619-0.133,1.252-0.368,1.903
		C8.291,3.635,8.037,2.898,8.037,2.318 M50.388,2.594C50.388,1.324,49.807,0,48.64,0c-0.325,0-0.145,1.185,0.129,1.185
		c0.241,0,0.587,0.462,0.587,1.631c0,2.042-1.981,4.865-4.309,8.161c-0.935,1.322-1.873,2.665-2.666,3.96
		c-0.87-1.489-1.99-3.048-3.142-4.715c-1.135-1.644-2.268-3.261-3.094-4.673c0.496-1.059,0.806-2.057,0.806-2.955
		c0-1.262-0.574-2.578-1.728-2.593C35.222,0.001,35.219,0,35.217,0h-0.007h-0.005c-0.003,0-0.004,0.001-0.006,0.001
		c-0.992,0.013-2.005,1.038-2.005,3.01c0,1.19,0.449,2.523,1.145,3.922c-0.752,1.239-1.705,2.597-2.728,4.044
		c-0.932,1.319-1.868,2.659-2.662,3.953c-0.838-1.491-1.896-3.029-2.951-4.525c-1.214-1.722-2.405-3.407-3.264-4.879
		c0.49-1.05,0.796-2.041,0.796-2.932C23.53,1.324,22.949,0,21.782,0c-1.257,0-2.012,1.437-2.012,3.013
		c0,1.281,0.439,2.586,1.135,3.941c-0.748,1.233-1.699,2.583-2.716,4.022c-0.933,1.322-1.871,2.665-2.665,3.96
		c-0.87-1.489-1.99-3.048-3.142-4.715c-1.136-1.644-2.269-3.261-3.094-4.675c0.503-1.093,0.811-2.113,0.811-3.003
		C10.099,1.07,9.356,0,8.359,0C7.362,0,6.335,1.028,6.335,3.011c0,1.187,0.446,2.515,1.139,3.911
		C6.69,8.206,5.702,9.574,4.696,11.066C2.519,14.298,0,17.684,0,20.243c0,1.27,0.581,2.593,1.748,2.593
		c0.325,0,0.144-1.185-0.129-1.185c-0.242,0-0.588-0.462-0.588-1.631c0-2.042,1.983-4.865,4.31-8.162
		c0.932-1.316,1.868-2.657,2.661-3.951c0.838,1.49,1.896,3.028,2.951,4.525c1.219,1.727,2.414,3.419,3.273,4.894
		c-0.494,1.08-0.795,2.086-0.795,2.966c0,1.473,0.741,2.542,1.737,2.544h0.001h0.001h0.001c1.257-0.002,2.012-1.439,2.012-3.012
		c0-1.274-0.435-2.569-1.124-3.915c0.784-1.281,1.771-2.648,2.775-4.141c0.869-1.288,1.792-2.603,2.588-3.88
		c0.871,1.494,1.993,3.055,3.148,4.726c1.136,1.645,2.269,3.261,3.094,4.675c-0.502,1.095-0.811,2.114-0.811,3.003
		c0,1.475,0.741,2.544,1.739,2.544s2.023-1.027,2.023-3.012c0-1.185-0.445-2.515-1.139-3.908c0.784-1.284,1.773-2.653,2.779-4.147
		c0.871-1.291,1.795-2.605,2.591-3.884c0.841,1.496,1.904,3.043,2.966,4.548c1.217,1.727,2.412,3.419,3.272,4.894
		c-0.493,1.08-0.795,2.086-0.795,2.966c0,1.473,0.74,2.542,1.736,2.544h0.002h0.001h0.001c1.257-0.002,2.011-1.439,2.011-3.012
		c0-1.274-0.434-2.569-1.123-3.915c0.784-1.281,1.771-2.648,2.774-4.141C47.869,8.539,50.388,5.153,50.388,2.594"/>
	<path fill="#282829" d="M207.388,8.496c0,0.26,0.092,0.764,0.092,0.764s-0.214-0.488-0.489-0.778
		c-4.935-5.271-4.477-4.845-5.119-5.562c-0.29-0.076-0.778,0.046-0.977,0.123l-0.092,0.198c0.274,0.352,0.336,0.672,0.336,1.329
		v2.002c0,1.176,0,2.765-0.016,4.354v0.199h1.055c-0.107-0.764-0.139-2.292-0.139-3.728c0-0.611,0.031-1.238,0.031-1.833
		c0-0.185-0.015-0.413-0.046-0.552c0.092,0.23,0.55,0.765,0.55,0.765l4.936,5.348h0.901c-0.03-0.581-0.062-1.406-0.062-2.338
		c0-1.91,0.077-4.14,0.168-5.76c-0.122-0.091-0.412-0.138-0.641-0.138c-0.275,0-0.581,0.062-0.719,0.153l-0.092,0.198
		c0.229,0.245,0.352,0.611,0.352,1.329C207.418,8.42,207.388,8.496,207.388,8.496 M195.317,10.497c1.269,0,2.17-1.375,2.17-3.132
		c0-2.016-1.116-3.621-2.475-3.621c-1.284,0-2.201,1.36-2.201,3.102C192.812,8.74,193.882,10.497,195.317,10.497 M195.471,2.889
		c1.91,0,3.56,1.422,3.56,4.064c-0.061,2.429-1.727,4.369-4.339,4.369c-1.65,0-3.407-1.437-3.407-4.079
		C191.284,4.707,193.088,2.889,195.471,2.889 M188.274,3.042l1.818-0.077c0.428,0.429,0.306,1.36,0.214,1.482h-0.244
		c-0.062-0.366-0.612-0.642-1.391-0.642h-0.962c0,0.138-0.077,5.088-0.031,6.783c0,0.214,0.046,0.382,0.077,0.535h-1.528v-0.199
		c0.03-3.178,0-6.203,0-6.203c0-0.351-0.016-0.702-0.062-0.916h-0.963c-0.778,0-1.329,0.275-1.39,0.642h-0.245
		c-0.091-0.122-0.214-1.054,0.214-1.482l1.818,0.077H188.274z M179.443,2.889c-2.521,0-4.217,1.849-4.217,4.386
		c0,2.536,1.757,4.048,3.637,4.048c1.161,0,2.353-0.244,2.918-0.352c0.168-0.029,0.382-0.061,0.382-0.061s-0.03-0.886-0.016-1.161
		c0.016-0.871,0.046-1.207,0.092-1.925c-0.26-0.107-0.519-0.153-0.764-0.153c-0.489,0-0.901,0.168-0.901,0.168l-0.092,0.199
		c0.138,0.214,0.336,0.382,0.336,1.344v0.902c0,0-0.779,0.183-1.207,0.183c-1.344,0-2.826-1.253-2.826-3.819
		c0.047-1.972,1.161-2.934,2.506-2.934c1.223,0,1.695,0.917,1.695,1.237l0.214,0.153c0.475-0.184,0.84-0.962,0.84-1.207
		c-0.305-0.551-1.436-1.009-2.581-1.009H179.443z M171.773,8.496c0,0.26,0.092,0.764,0.092,0.764s-0.214-0.488-0.488-0.778
		c-4.936-5.271-4.477-4.845-5.119-5.562c-0.289-0.076-0.778,0.046-0.978,0.123l-0.092,0.198c0.274,0.352,0.337,0.672,0.337,1.329
		v2.002c0,1.176,0,2.765-0.016,4.354v0.199h1.055c-0.107-0.764-0.139-2.292-0.139-3.728c0-0.611,0.031-1.238,0.031-1.833
		c0-0.185-0.016-0.413-0.045-0.552c0.09,0.23,0.549,0.765,0.549,0.765l4.936,5.348h0.9c-0.029-0.581-0.061-1.406-0.061-2.338
		c0-1.91,0.076-4.14,0.168-5.76c-0.121-0.091-0.412-0.138-0.642-0.138c-0.275,0-0.58,0.062-0.718,0.153l-0.092,0.198
		c0.229,0.245,0.352,0.611,0.352,1.329C171.805,8.42,171.773,8.496,171.773,8.496 M162.348,11.124
		c-0.123-0.26-0.139-1.94-0.139-3.224c0-1.682,0.062-3.515,0.123-4.89c-0.244-0.106-0.551-0.152-0.795-0.152
		c-0.504,0-0.963,0.168-0.963,0.168l-0.091,0.199c0.153,0.214,0.351,0.382,0.351,1.344c0,5.684-0.015,6.158-0.029,6.555H162.348z
		 M157.672,7.9c0-1.682,0.062-3.515,0.123-4.874c-0.26-0.107-0.565-0.152-0.811-0.152c-0.504,0-0.947,0.168-0.947,0.168
		l-0.092,0.198c0.153,0.214,0.352,0.382,0.352,1.345c0,0.382,0,1.176-0.016,2.078h-4.354c0.015-1.313,0.076-2.582,0.121-3.637
		c-0.243-0.107-0.549-0.152-0.793-0.152c-0.504,0-0.963,0.168-0.963,0.168l-0.092,0.198c0.152,0.214,0.352,0.382,0.352,1.345
		c0,5.668-0.016,6.143-0.031,6.539h1.544c-0.123-0.26-0.138-1.94-0.138-3.224v-0.52h4.354c0,1.466-0.015,2.918-0.015,3.04
		c0,0.26,0,0.489,0.046,0.703h1.497C157.672,10.864,157.672,9.184,157.672,7.9 M146.688,3.042l1.818-0.077
		c0.428,0.429,0.305,1.36,0.214,1.482h-0.245c-0.061-0.366-0.611-0.642-1.391-0.642h-0.963c0,0.138-0.076,5.088-0.029,6.783
		c0,0.214,0.046,0.382,0.076,0.535h-1.528v-0.199c0.03-3.178,0-6.203,0-6.203c0-0.351-0.015-0.702-0.062-0.916h-0.961
		c-0.779,0-1.33,0.275-1.392,0.642h-0.244c-0.092-0.122-0.214-1.054,0.214-1.482l1.818,0.077H146.688z M137.291,7.411
		c-0.428,0-0.642-0.03-0.84-0.107V6.938c0-1.101,0-2.735,0.045-3.179l0.719-0.016c0.824-0.03,1.895,0.443,1.895,2.032
		C139.109,6.815,138.299,7.411,137.291,7.411 M136.574,11.124c-0.047-0.382-0.093-1.895-0.123-3.132
		c0.244,0.046,0.428,0.076,0.656,0.076c0.855,0.886,2.124,2.17,2.598,3.056h1.879c-0.367-0.26-2.72-3.146-3.039-3.285
		c1.084-0.336,1.832-1.253,1.832-2.338c0-1.985-1.649-2.521-2.963-2.521c-0.062,0-0.184,0-2.613,0.062l-0.092,0.198
		c0.474,0.55,0.352,2.567,0.352,4.63c0.016,0.947-0.016,2.001-0.016,3.055v0.199H136.574z M129.086,10.497
		c1.27,0,2.17-1.375,2.17-3.132c0-2.016-1.114-3.621-2.475-3.621c-1.283,0-2.199,1.36-2.199,3.102
		C126.582,8.74,127.65,10.497,129.086,10.497 M129.239,2.889c1.91,0,3.56,1.422,3.56,4.064c-0.061,2.429-1.725,4.369-4.338,4.369
		c-1.65,0-3.407-1.437-3.407-4.079C125.054,4.707,126.856,2.889,129.239,2.889 M120.592,11.445l-0.641-0.138
		c-0.75-0.153-1.025-0.811-1.115-1.161l-1.36-4.187l-1.558,4.187l-0.414,1.299l-0.642-0.138c-0.748-0.153-1.022-0.811-1.114-1.161
		l-2.14-6.616c-0.565-1.772-1.024-2.169-1.114-2.2l0.106-0.259c0.229-0.107,0.657-0.214,1.084-0.214
		c0.366,0,0.733,0.076,0.933,0.274c0.352,1.589,2.047,7.089,2.674,8.495c0,0,0.121-0.627,0.32-1.131l1.375-4.063l-0.29-0.902
		c-0.565-1.772-1.024-2.169-1.116-2.2l0.107-0.259c0.23-0.107,0.657-0.214,1.085-0.214c0.367,0,0.733,0.076,0.933,0.274
		c0.351,1.589,2.047,7.089,2.674,8.495c0,0,0.121-0.627,0.32-1.131l1.803-5.317c0.138-0.336,0.229-0.672,0.229-0.992
		c0-0.321-0.092-0.611-0.321-0.856l0.107-0.259c0.244-0.123,0.55-0.153,0.84-0.153c0.382,0,0.688,0.062,0.887,0.153
		c-0.062,0.611-0.367,1.558-0.551,2.032l-2.689,7.043L120.592,11.445z M100.654,4.601v5.698c0,0,0.015,0.429-0.016,0.825h3.209
		c0.458,0,1.191-0.046,1.191-0.733c0-0.138-0.031-0.29-0.031-0.29s-0.075,0.168-0.488,0.168h-2.414
		c-0.015-0.03-0.031-0.062-0.031-0.076c-0.03-0.795-0.045-1.696-0.03-2.721c0.336-0.015,1.237,0,1.314,0
		c0.458,0,1.192-0.029,1.192-0.718c0-0.137-0.031-0.29-0.031-0.29s-0.076,0.168-0.489,0.168h-1.986c0-0.778,0.061-2.275,0.092-2.888
		l1.039,0.031c0.733,0.03,1.298,0.306,1.39,0.672h0.244c0.153-0.137,0.153-1.146-0.168-1.451l-2.261,0.046h-1.986l-0.092,0.198
		C100.456,3.454,100.654,3.637,100.654,4.601 M98.545,11.124c0.291-0.26,0.337-1.207,0.168-1.406h-0.259
		c-0.077,0.367-0.596,0.643-1.375,0.643h-1.437c-0.03-0.672-0.03-1.604-0.03-2.46c0-1.682,0.061-3.499,0.122-4.874
		c-0.244-0.107-0.55-0.152-0.794-0.152c-0.505,0-0.963,0.168-0.963,0.168L93.886,3.24c0.153,0.214,0.352,0.382,0.352,1.345
		c0,5.684-0.015,6.143-0.031,6.539H98.545z M88.11,10.497c1.269,0,2.17-1.375,2.17-3.132c0-2.016-1.115-3.621-2.475-3.621
		c-1.283,0-2.2,1.36-2.2,3.102C85.605,8.74,86.674,10.497,88.11,10.497 M88.264,2.889c1.91,0,3.56,1.422,3.56,4.064
		c-0.061,2.429-1.726,4.369-4.339,4.369c-1.65,0-3.407-1.437-3.407-4.079C84.078,4.707,85.88,2.889,88.264,2.889 M82.626,9.26
		c-0.474,0.811-1.589,1.146-2.353,1.146c-1.91,0-2.872-1.757-2.872-3.652c0-1.589,0.794-3.04,2.52-3.04
		c1.207,0,1.696,0.917,1.696,1.237l0.199,0.153c0.474-0.184,0.84-0.962,0.84-1.207c-0.305-0.551-1.436-1.009-2.582-1.009
		c-2.521,0-4.217,1.849-4.217,4.386c0,2.275,1.345,4.048,3.82,4.048c1.65,0,3.01-0.733,3.01-1.802
		C82.688,9.443,82.672,9.336,82.626,9.26 M73.475,11.124c-0.122-0.26-0.137-1.94-0.137-3.224c0-1.682,0.061-3.515,0.122-4.89
		c-0.245-0.106-0.55-0.152-0.795-0.152c-0.504,0-0.962,0.168-0.962,0.168L71.61,3.226c0.153,0.214,0.351,0.382,0.351,1.344
		c0,5.684-0.015,6.158-0.03,6.555H73.475z M67.653,7.839c0,0.321,0.107,0.963,0.107,0.963s-0.245-0.627-0.565-0.978
		c-5.714-6.585-5.271-6.021-6.02-6.921c-0.336-0.092-0.688,0.061-0.917,0.151l-0.107,0.261c0.321,0.428,0.398,0.84,0.398,1.649v2.46
		c0,1.482,0,3.469-0.016,5.454v0.245h1.1c-0.122-0.963-0.152-2.856-0.152-4.66c0-0.764,0.03-1.513,0.03-2.261
		c0-0.229-0.015-0.504-0.046-0.673c0.107,0.275,0.627,0.948,0.627,0.948l5.805,6.646h0.841c-0.046-0.718-0.077-1.757-0.077-2.918
		c0-2.398,0.092-5.134,0.184-7.166c-0.138-0.106-0.413-0.168-0.688-0.168c-0.305,0-0.611,0.076-0.764,0.183l-0.107,0.261
		c0.26,0.306,0.398,0.749,0.398,1.649C67.685,7.778,67.653,7.839,67.653,7.839"/>
</g>
</svg>
